<svg xmlns="http://www.w3.org/2000/svg" xmlns:svg="http://www.w3.org/2000/svg" id="svg3859" width="18" height="18" version="1.1"><metadata id="metadata3864"/><g id="layer1" transform="translate(0,2)"><g id="g3885"><path id="path3883" fill="#fff" fill-opacity=".722" stroke="none" d="M 9,5 C 7.3431457,5 6,6.3431457 6,8 6,9.656854 7.3431457,11 9,11 10.656854,11 12,9.656854 12,8 12,6.3431457 10.656854,5 9,5 z m 0,1 c 1.10457,0 2,0.8954305 2,2 0,1.10457 -0.89543,2 -2,2 C 7.8954305,10 7,9.10457 7,8 7,6.8954305 7.8954305,6 9,6 z"/><path id="path3107" fill="#4d4d4d" fill-opacity="1" stroke="none" d="M 9,4 C 7.3431457,4 6,5.3431457 6,7 6,8.656854 7.3431457,10 9,10 10.656854,10 12,8.656854 12,7 12,5.3431457 10.656854,4 9,4 z m 0,1 c 1.10457,0 2,0.8954305 2,2 C 11,8.10457 10.10457,9 9,9 7.8954305,9 7,8.10457 7,7 7,5.8954305 7.8954305,5 9,5 z"/></g></g></svg>