<svg xmlns="http://www.w3.org/2000/svg" xmlns:svg="http://www.w3.org/2000/svg" xmlns:xlink="http://www.w3.org/1999/xlink" id="svg3904" width="16" height="16" version="1.1"><defs id="defs3906"><linearGradient id="linearGradient3787"><stop id="stop3789" offset="0" stop-color="#3c3c3c" stop-opacity="1"/><stop id="stop3791" offset="1" stop-color="#4b4b4b" stop-opacity="1"/></linearGradient><linearGradient id="linearGradient3850" x1="5.714" x2="5.714" y1="16" y2="0" gradientTransform="matrix(0.875,0,0,0.875,-17,1)" gradientUnits="userSpaceOnUse" xlink:href="#linearGradient3771"/><linearGradient id="linearGradient3771"><stop id="stop3773" offset="0" stop-color="#4a4a4a" stop-opacity="1"/><stop id="stop3775" offset="1" stop-color="#2c2c2c" stop-opacity="1"/></linearGradient><linearGradient id="linearGradient3852" x1="5.714" x2="5.714" y1="1.143" y2="0" gradientTransform="matrix(0.875,0,0,0.875,-17,1)" gradientUnits="userSpaceOnUse" xlink:href="#linearGradient3783"/><linearGradient id="linearGradient3783"><stop id="stop3785" offset="0" stop-color="#fff" stop-opacity="0"/><stop id="stop3787" offset="1" stop-color="#fff" stop-opacity=".173"/></linearGradient><linearGradient id="linearGradient3771-1"><stop id="stop3773-7" offset="0" stop-color="#4a4a4a" stop-opacity="1"/><stop id="stop3775-4" offset="1" stop-color="#2c2c2c" stop-opacity="1"/></linearGradient><linearGradient id="linearGradient3783-0"><stop id="stop3785-9" offset="0" stop-color="#fff" stop-opacity="0"/><stop id="stop3787-4" offset="1" stop-color="#fff" stop-opacity=".173"/></linearGradient><linearGradient id="linearGradient3805"><stop id="stop3807" offset="0" stop-color="#fff" stop-opacity=".723"/><stop id="stop3809" offset="1" stop-color="#fff" stop-opacity=".518"/></linearGradient><linearGradient id="linearGradient3793" x1="6" x2="6" y1="0" y2="16" gradientUnits="userSpaceOnUse" xlink:href="#linearGradient3787"/></defs><metadata id="metadata3909"/><g id="layer1"><g id="g3795"><rect id="rect2993" width="16" height="16" x="0" y="0" fill="url(#linearGradient3793)" fill-opacity="1" fill-rule="nonzero" stroke="none" rx="0" ry="0"/><rect id="rect3813" width="15" height="15" x=".5" y=".5" fill="none" stroke="#fff" stroke-dasharray="none" stroke-miterlimit="4" stroke-opacity=".118" stroke-width="1" rx="0" ry="0"/><path id="path4076" fill="#000" fill-opacity=".196" stroke="none" d="m 12,13 -2,0 -2,-2 -2,2 -2,0 0,-2 2,-2.0000003 -2,-2 0,-2 2,0 2,2 2,-2 2,0 0,2 -2,2 L 12,11 z"/><path id="path3841" fill="#dcdcdc" fill-opacity="1" stroke="none" d="m 12,12 -2,0 -2,-2 -2,2 -2,0 0,-2 2,-2.0000003 -2,-2 0,-2 2,0 2,2 2,-2 2,0 0,2 -2,2 L 12,10 z"/></g></g></svg>