<svg xmlns="http://www.w3.org/2000/svg" xmlns:svg="http://www.w3.org/2000/svg" id="Foreground" width="32" height="32" x="0" y="0" enable-background="new 0 0 16 16" version="1.0" viewBox="0 0 23.273 23.273" xml:space="preserve"><metadata id="metadata2399"/><defs id="defs2397"><linearGradient id="linearGradient3173"><stop id="stop3175" offset="0" stop-color="#c4c4c4" stop-opacity="1"/><stop id="stop3177" offset="1" stop-color="#fff" stop-opacity="1"/></linearGradient><filter id="filter16524-9" width="1.426" height="1.426" x="-.213" y="-.213" color-interpolation-filters="sRGB"><feGaussianBlur id="feGaussianBlur16526-0" stdDeviation=".71"/></filter></defs><g id="g3013"><path id="path3793" fill="#000" fill-opacity=".413" fill-rule="nonzero" stroke="none" stroke-width="1.455" d="m 4.3636364,11.636364 c 0,-4.0163644 3.2563637,-7.2727277 7.2727276,-7.2727277 4.016362,0 7.272727,3.2563633 7.272727,7.2727277 0,4.016364 -3.256365,7.272727 -7.272727,7.272727 -4.016364,0 -7.2727277,-3.256363 -7.2727277,-7.272728 z" clip-rule="evenodd" color="#000" display="inline" enable-background="accumulate" overflow="visible" visibility="visible" style="marker:none"/><path id="path3789" fill="none" stroke="#000" stroke-dasharray="none" stroke-miterlimit="4" stroke-opacity=".251" stroke-width=".727" d="m 2.5454346,11.636363 c 0,-5.0204656 4.0704634,-9.0909284 9.0909274,-9.0909284 5.020464,0 9.09093,4.0704628 9.09093,9.0909284 0,5.020465 -4.070466,9.090929 -9.09093,9.090929 -5.0204641,0 -9.0909274,-4.070464 -9.0909274,-9.090931 z" clip-rule="evenodd" color="#000" display="inline" enable-background="accumulate" overflow="visible" visibility="visible" style="marker:none"/><path clip-rule="evenodd" style="marker:none" id="path3007" fill="#000" fill-opacity=".413" fill-rule="nonzero" stroke="none" stroke-width="1.455" d="m 4.3636364,11.636364 c 0,-4.0163644 3.2563637,-7.2727277 7.2727276,-7.2727277 4.016362,0 7.272727,3.2563633 7.272727,7.2727277 0,4.016364 -3.256365,7.272727 -7.272727,7.272727 -4.016364,0 -7.2727277,-3.256363 -7.2727277,-7.272728 z" color="#000" display="inline" enable-background="accumulate" overflow="visible" visibility="visible"/><path id="path3011" fill="#000" fill-opacity="1" fill-rule="nonzero" stroke="none" stroke-width="1.781" d="m 8.7295594,9.454546 0.7269867,0 c 0.0075,-8.72e-5 0.01511,-3.345e-4 0.02272,0 0.185346,0.00815 0.370669,0.093513 0.499803,0.2272728 L 11.637507,11.34091 13.318663,9.6818188 C 13.51177,9.5141824 13.643389,9.4596369 13.818467,9.454546 l 0.726987,0 0,0.727273 c 0,0.208342 -0.02496,0.400472 -0.181746,0.545454 l -1.658438,1.659091 1.63572,1.636363 c 0.13681,0.136851 0.204458,0.329782 0.204464,0.522728 l 0,0.727272 -0.726987,0 c -0.19287,-7e-6 -0.385728,-0.06771 -0.522521,-0.204545 l -1.658438,-1.659091 -1.6584379,1.659091 c -0.136792,0.136865 -0.329659,0.204545 -0.522521,0.204545 l -0.7269867,0 0,-0.727272 c -2.2e-6,-0.192938 0.067653,-0.385877 0.204465,-0.522728 L 10.592463,12.386364 8.9340244,10.727273 C 8.7808178,10.585724 8.7136312,10.386001 8.7295594,10.181819 l 0,-0.727273 z" color="#bebebe" direction="ltr" display="inline" enable-background="new" font-family="Andale Mono" font-size="medium" font-stretch="normal" font-style="normal" font-variant="normal" font-weight="normal" letter-spacing="normal" overflow="visible" text-anchor="start" text-decoration="none" visibility="visible" word-spacing="normal" writing-mode="lr-tb" style="text-indent:0;text-align:start;line-height:normal;text-transform:none;block-progression:tb;marker:none;-inkscape-font-specification:Andale Mono"/><path id="path27279-0-5" fill="#fff" fill-opacity="1" fill-rule="nonzero" stroke="none" stroke-width="1.781" d="m 8.7295596,8.7273578 0.7269867,0 c 0.0075,-8.72e-5 0.01511,-3.345e-4 0.02272,0 0.185346,0.00815 0.370669,0.093513 0.499803,0.2272728 L 11.637507,10.613722 13.318663,8.9546306 C 13.51177,8.7869942 13.643389,8.7324487 13.818467,8.7273578 l 0.726987,0 0,0.7272728 c 0,0.2083418 -0.02496,0.4004727 -0.181746,0.5454544 l -1.658438,1.659091 1.63572,1.636363 c 0.13681,0.136851 0.204458,0.329782 0.204464,0.522728 l 0,0.727272 -0.726987,0 c -0.19287,-7e-6 -0.385728,-0.06771 -0.522521,-0.204545 l -1.658438,-1.659091 -1.6584377,1.659091 c -0.136792,0.136865 -0.329659,0.204545 -0.522521,0.204545 l -0.7269867,0 0,-0.727272 c -2.2e-6,-0.192938 0.067653,-0.385877 0.204465,-0.522728 L 10.592463,11.659176 8.9340246,10.000085 C 8.780818,9.858536 8.7136314,9.6588124 8.7295596,9.4546306 l 0,-0.7272728 z" color="#bebebe" direction="ltr" display="inline" enable-background="new" font-family="Andale Mono" font-size="medium" font-stretch="normal" font-style="normal" font-variant="normal" font-weight="normal" letter-spacing="normal" overflow="visible" text-anchor="start" text-decoration="none" visibility="visible" word-spacing="normal" writing-mode="lr-tb" style="text-indent:0;text-align:start;line-height:normal;text-transform:none;block-progression:tb;marker:none;-inkscape-font-specification:Andale Mono"/><path id="path3777" fill="none" stroke="#fff" stroke-dasharray="none" stroke-dashoffset="0" stroke-linecap="butt" stroke-linejoin="miter" stroke-miterlimit="4" stroke-opacity=".588" stroke-width="1.455" d="m 3.6363637,11.636494 c 0,-4.4179285 3.5819418,-7.9998697 7.9998693,-7.9998697 4.417927,0 7.99987,3.5819412 7.99987,7.9998697 0,4.417928 -3.581943,7.999869 -7.99987,7.999869 -4.4179276,0 -7.9998694,-3.581941 -7.9998694,-7.99987 z" clip-rule="evenodd" color="#000" display="inline" enable-background="accumulate" overflow="visible" visibility="visible" style="marker:none"/><path id="path3791" fill="none" stroke="#000" stroke-dasharray="none" stroke-miterlimit="4" stroke-opacity=".093" stroke-width=".727" d="m 1.8182174,11.636363 c 0,-5.4220708 4.3960752,-9.8181453 9.8181456,-9.8181453 5.42207,0 9.818147,4.3960745 9.818147,9.8181453 0,5.42207 -4.396077,9.818146 -9.818147,9.818146 -5.4220705,0 -9.8181456,-4.396076 -9.8181456,-9.818148 z" clip-rule="evenodd" color="#000" display="inline" enable-background="accumulate" overflow="visible" visibility="visible" style="marker:none"/></g></svg>