<svg xmlns="http://www.w3.org/2000/svg" xmlns:svg="http://www.w3.org/2000/svg" id="svg12430" width="16" height="16" version="1.1"><metadata id="metadata12435"/><g id="layer1" transform="translate(0,-1036.3622)"><g id="g14642-3-0" display="inline" transform="translate(-141.99984,638.37113)"><g id="g3774" transform="translate(-18,0)"><path id="rect3757" fill="#000" fill-opacity="1" fill-rule="evenodd" stroke="#000" stroke-linecap="butt" stroke-linejoin="miter" stroke-miterlimit="4" stroke-opacity="1" stroke-width="0" d="m 166.99984,402.99107 0,2 -2,0 0,2 2,0 0,2 2,0 0,-2 2,0 0,-2 -2,0 0,-2 -2,0 z"/><rect id="rect3762" width="14" height="14" x="161" y="398.991" fill="#000" fill-opacity=".486" stroke="none" rx="2" ry="2"/><path d="m 163.1875,399.99107 c -0.6627,0 -1.1875,0.54899 -1.1875,1.21875 l 0,9.5625 c 0,0.66976 0.5248,1.21875 1.1875,1.21875 l 9.625,0 c 0.6627,0 1.1875,-0.54899 1.1875,-1.21875 l 0,-9.5625 c 0,-0.66976 -0.5248,-1.21875 -1.1875,-1.21875 l -9.625,0 z m 3.8125,3 2,0 0,2 2,0 0,2 -2,0 0,2 -2,0 0,-2 -2,0 0,-2 2,0 0,-2 z" style="marker:none" id="rect11749-5-0-1-8" fill="#fff" fill-opacity="1" stroke="none" stroke-width="2" color="#bebebe" display="inline" overflow="visible" visibility="visible"/></g></g></g></svg>