<svg xmlns="http://www.w3.org/2000/svg" xmlns:svg="http://www.w3.org/2000/svg" id="svg3010" width="38" height="20" version="1.1"><metadata id="metadata3015"/><g id="layer1" transform="translate(0,-1032.3622)"><g id="g3951"><path id="rect3792" fill="#fff" fill-opacity=".251" stroke="none" d="M 11 2 C 6.581722 2 3 5.5817 3 10 C 3 14.4183 6.581722 18 11 18 C 15.078288 18 18.443689 14.944457 18.9375 11 L 35 11 L 35 9 L 18.9375 9 C 18.443689 5.0555426 15.078288 2 11 2 z M 11 4 C 14.313708 4 17 6.6863 17 10 C 17 13.3137 14.313708 16 11 16 C 7.686292 16 5 13.3137 5 10 C 5 6.6863 7.686292 4 11 4 z" transform="translate(0,1032.3622)"/><path id="path3949" fill="#fff" fill-opacity=".251" stroke="none" d="m 15,10 a 3.5,3 0 1 1 -7,0 3.5,3 0 1 1 7,0 z" transform="matrix(1.1428571,0,0,1.3333333,-2.1428565,1029.0289)"/></g></g></svg>