<svg xmlns="http://www.w3.org/2000/svg" xmlns:svg="http://www.w3.org/2000/svg" id="svg3952" width="52" height="22" version="1.1"><metadata id="metadata3957"/><g id="layer1" transform="translate(0,-26)"><g id="g3926" transform="translate(0,-1088.3622)"><rect id="rect3885" width="52" height="22" x="0" y="1114.362" fill="#b3b3b3" fill-opacity="1" fill-rule="nonzero" stroke="none" ry="11"/><path id="path3890" fill="#fff" fill-opacity=".333" stroke="none" d="m 6,1126.2713 1.81818,-1.8182 1.81818,2.2728 4.54546,-6.3637 1.81818,1.8182 -6.36364,8.1818 z"/><path id="path3892" fill="#000" fill-opacity=".062" fill-rule="nonzero" stroke="none" d="M 49,10.5 C 49,14.642136 45.418278,18 41,18 36.581722,18 33,14.642136 33,10.5 33,6.3578644 36.581722,3 41,3 c 4.418278,0 8,3.3578644 8,7.5 z" transform="matrix(1.25,0,0,1.3333333,-10.25,1111.3622)"/><path id="path3894" fill="#f7f7f7" fill-opacity=".707" fill-rule="nonzero" stroke="none" d="M 49,10.5 C 49,14.642136 45.418278,18 41,18 36.581722,18 33,14.642136 33,10.5 33,6.3578644 36.581722,3 41,3 c 4.418278,0 8,3.3578644 8,7.5 z" transform="matrix(1.125,0,0,1.2,-5.125,1112.7622)"/><path id="path3896" fill="#000" fill-opacity=".063" fill-rule="nonzero" stroke="none" d="M 44,10.5 C 44,12.432997 42.432997,14 40.5,14 38.567003,14 37,12.432997 37,10.5 37,8.5670034 38.567003,7 40.5,7 42.432997,7 44,8.5670034 44,10.5 z" transform="matrix(1.7142857,0,0,1.7142857,-28.428571,1107.3622)"/><path id="path3898" fill="#b3b3b3" fill-opacity="1" fill-rule="nonzero" stroke="none" d="M 44,10.5 C 44,12.432997 42.432997,14 40.5,14 38.567003,14 37,12.432997 37,10.5 37,8.5670034 38.567003,7 40.5,7 42.432997,7 44,8.5670034 44,10.5 z" transform="matrix(1.1428571,0,0,1.1428571,-5.285714,1113.3622)"/></g></g></svg>